<svg version="1.1" id="Layer_1" xmlns="http://www.w3.org/2000/svg" xmlns:xlink="http://www.w3.org/1999/xlink" x="0px" y="0px"
	 width="100%" viewBox="0 0 1024 1024" enable-background="new 0 0 1024 1024" xml:space="preserve">
<path fill="#ffffff" opacity="1.000000" stroke="none" 
	d="
M673.286438,237.123352 
	C698.517212,230.079559 723.504089,223.741287 748.914978,219.235443 
	C754.620483,218.223755 760.370728,216.936417 766.249695,218.132111 
	C782.178101,221.371674 791.026062,233.322723 791.051636,251.943314 
	C791.118591,300.595795 791.132385,349.248322 791.139832,397.900848 
	C791.152222,479.210510 791.139160,560.520142 791.146851,641.829834 
	C791.148193,656.427063 786.023743,668.478455 773.765442,676.992615 
	C768.735962,680.486023 762.903381,681.910400 757.075623,683.377869 
	C709.920898,695.252014 662.931641,707.637573 618.220825,727.267883 
	C596.197144,736.937378 575.194519,748.433044 555.168823,761.738525 
	C551.146423,764.411072 547.140686,767.097961 542.435669,768.531128 
	C534.356323,770.992371 528.063293,767.631348 526.047424,759.455872 
	C525.213867,756.075256 524.766907,752.608459 524.771667,749.073608 
	C524.819153,714.083801 524.888489,679.093567 524.714172,644.104614 
	C524.689514,639.163208 526.058716,637.234924 531.207153,636.443176 
	C568.096436,630.770203 598.388184,613.461914 620.817871,583.454773 
	C638.145386,560.273499 646.996155,534.214783 644.619324,504.942810 
	C644.066711,498.136871 642.608398,491.449036 640.591125,484.920959 
	C639.584229,481.662445 640.020325,479.056213 641.905945,476.046143 
	C649.905640,463.276123 650.381226,449.983093 641.724365,437.557190 
	C627.920410,417.743011 613.854553,398.075012 599.054382,379.000885 
	C583.217163,358.590271 553.326782,362.950897 543.446777,386.634277 
	C542.168884,389.697632 540.541931,390.623383 537.418884,390.203156 
	C524.820374,388.507843 524.658752,388.556274 524.842346,375.913239 
	C525.064636,360.603607 523.891968,345.269318 525.618896,329.984497 
	C527.252319,315.527405 533.681091,303.722351 545.129456,294.714386 
	C564.966858,279.105591 587.524109,268.374420 610.608887,258.715729 
	C630.895569,250.227768 651.756775,243.301697 673.286438,237.123352 
z"/>
<path fill="#ffffff" opacity="1.000000" stroke="none" 
	d="
M343.996704,728.842407 
	C389.360168,742.986145 431.679993,762.510742 470.563110,789.345825 
	C484.836243,799.196350 500.470154,805.309631 518.384583,803.752930 
	C530.680786,802.684509 541.685669,798.165222 551.855896,791.613892 
	C571.895325,778.705444 591.980774,765.928772 613.498352,755.534119 
	C650.282227,737.764771 689.136414,726.016968 728.478088,715.670227 
	C745.055969,711.310242 761.774475,707.466980 778.281799,702.860962 
	C797.810608,697.411987 809.894592,684.598816 814.169189,664.611145 
	C814.983826,660.801941 814.715698,656.978027 814.716431,653.161438 
	C814.740112,524.004822 814.733765,394.848236 814.734802,265.691650 
	C814.734924,255.973969 815.137939,255.686554 824.582153,258.482849 
	C843.071167,263.957214 855.079773,280.837952 855.099426,301.817505 
	C855.153748,359.979553 855.095947,418.141724 855.100342,476.303833 
	C855.105347,542.965271 855.137085,609.626770 855.140015,676.288208 
	C855.140686,692.017883 850.461060,706.074341 840.155762,718.149048 
	C831.735962,728.014465 820.988037,733.971375 808.621948,737.270264 
	C765.848450,748.680664 722.810120,759.102661 680.275513,771.401428 
	C649.772766,780.221130 620.242615,791.402039 593.245972,808.506226 
	C584.643250,813.956604 576.611145,820.179626 568.542969,826.355713 
	C535.637207,851.544617 490.553467,852.313599 458.239075,826.580078 
	C424.728302,799.893738 386.799561,782.739807 346.035583,771.395508 
	C303.397217,759.529602 260.466736,748.717163 217.718994,737.239258 
	C193.338028,730.692871 178.051498,714.971497 172.347473,690.311401 
	C171.307785,685.816406 170.996323,681.064575 170.993759,676.430969 
	C170.924835,552.274048 170.947693,428.117126 170.933044,303.960175 
	C170.931000,286.633667 176.972595,272.422150 191.895050,262.725952 
	C196.430176,259.779175 201.498306,258.235779 206.782394,257.200073 
	C210.178955,256.534332 211.413376,257.829224 211.319992,261.089020 
	C211.234146,264.086029 211.324051,267.087860 211.324020,270.087585 
	C211.323120,398.077637 211.508850,526.068237 211.142944,654.057251 
	C211.078156,676.725342 225.307587,697.663330 250.053192,703.662109 
	C281.434662,711.269409 312.745911,719.178894 343.996704,728.842407 
z"/>
<path fill="#ffffff" opacity="1.000000" stroke="none" 
	d="
M234.937897,568.000000 
	C234.942642,463.674469 234.934692,359.848969 234.998795,256.023468 
	C235.001663,251.379593 235.213089,246.649979 236.090744,242.107803 
	C239.374573,225.113037 254.315033,215.191818 271.835999,218.184830 
	C315.099854,225.575317 357.378448,236.749146 398.573181,251.874207 
	C424.745789,261.483734 450.066803,272.954346 473.238403,288.692383 
	C484.921997,296.627777 494.690247,306.125916 498.532166,320.391113 
	C500.101074,326.216492 501.084808,332.129242 501.154388,338.118103 
	C501.326630,352.948395 501.137238,367.782867 501.310852,382.613129 
	C501.362762,387.046967 500.076660,389.200745 495.258453,389.708984 
	C489.666718,390.298828 484.142517,391.791931 478.677551,393.229584 
	C474.944580,394.211548 473.555084,393.314758 473.548248,389.323730 
	C473.523438,374.830017 472.992615,360.333557 473.160156,345.844025 
	C473.349213,329.492554 466.365417,317.745209 452.649048,308.963074 
	C422.161926,289.443176 388.727142,276.895935 354.407715,266.373566 
	C333.409027,259.935364 312.306732,253.777008 290.588165,250.163971 
	C273.267303,247.282516 263.534973,255.193024 262.423950,272.811005 
	C262.256378,275.468262 262.329285,278.142181 262.329346,280.808380 
	C262.331573,395.466522 262.334045,510.124634 262.347992,624.782776 
	C262.350433,644.881714 271.194244,656.114258 290.695679,660.713867 
	C331.264740,670.282410 371.153564,682.061401 409.778076,697.823914 
	C425.814117,704.368164 441.674316,711.368469 456.473114,720.505005 
	C456.756226,720.679749 457.059937,720.820923 457.351807,720.981812 
	C468.325989,727.029846 473.622284,723.943542 473.575562,711.301941 
	C473.513367,694.475464 473.315704,677.648560 473.023224,660.824524 
	C472.955566,656.933228 473.838318,653.706665 476.640320,650.881531 
	C479.840881,647.654663 482.116180,643.719727 483.709137,639.486206 
	C484.842651,636.473755 486.477997,635.504517 489.763855,636.066223 
	C501.265930,638.032166 501.286560,637.919250 501.284607,649.665710 
	C501.279083,682.496582 501.252686,715.327454 501.290436,748.158325 
	C501.295288,752.359253 500.911407,756.487305 499.664459,760.481018 
	C497.358093,767.867737 491.460083,770.879944 484.013458,768.661438 
	C477.818481,766.815918 472.767639,762.919495 467.485687,759.456177 
	C430.687378,735.327271 390.648468,718.332947 348.798615,705.242126 
	C322.259766,696.940674 295.408051,689.808716 268.414581,683.189453 
	C246.176086,677.736206 234.917892,663.497925 234.913956,640.490601 
	C234.909836,616.493713 234.929535,592.496887 234.937897,568.000000 
z"/>
<path fill="#ffffff" opacity="1.000000" stroke="none" 
	d="
M423.204651,607.763794 
	C416.500061,598.597107 409.951324,589.759827 403.551788,580.815857 
	C400.628632,576.730347 397.842529,572.447815 399.224457,566.999878 
	C400.579559,561.657776 404.273682,558.426575 409.343964,556.853210 
	C431.127441,550.093567 452.931122,543.398010 474.755127,536.770447 
	C479.527710,535.321228 484.137177,535.916504 487.614014,539.812439 
	C491.225159,543.858887 491.284088,548.786072 489.252869,553.423340 
	C487.191101,558.130249 484.385651,562.515198 481.851440,567.010437 
	C479.120697,571.854309 479.186035,572.721985 484.491241,574.585144 
	C503.718109,581.337708 521.556213,578.209839 537.934692,566.348145 
	C548.095825,558.989197 555.134766,549.189758 559.167908,537.372498 
	C562.499207,527.611633 568.681274,521.368408 578.780579,518.603516 
	C588.247131,516.011780 597.503784,512.659851 606.879028,509.726105 
	C618.536011,506.078339 625.548767,511.837830 623.408691,523.870911 
	C615.874268,566.234680 590.812134,594.126587 551.065979,608.914917 
	C525.946411,618.261230 500.282104,618.702393 474.672852,610.065796 
	C468.117981,607.855286 468.003784,607.922424 466.936035,614.921021 
	C466.259460,619.355896 465.929626,623.842468 465.371002,628.296753 
	C464.684662,633.769287 461.823425,637.671204 456.470154,639.199890 
	C451.060089,640.744812 446.529724,638.748596 443.217163,634.442627 
	C436.512115,625.726868 430.008270,616.856323 423.204651,607.763794 
z"/>
<path fill="#ffffff" opacity="1.000000" stroke="none" 
	d="
M535.734924,477.254242 
	C537.250061,470.507050 541.408447,465.560272 544.485657,460.066528 
	C547.562195,454.574066 547.370544,453.747314 541.434448,451.540863 
	C512.066467,440.624786 479.784454,455.731232 468.055878,485.864136 
	C466.849335,488.963959 465.744904,492.125702 464.253387,495.087677 
	C461.284790,500.982910 456.702820,505.227539 450.335510,507.253998 
	C439.391724,510.737000 428.453583,514.247559 417.438934,517.495117 
	C408.456055,520.143555 401.663300,514.604675 402.622803,505.170410 
	C404.819031,483.576416 413.865723,464.794159 427.995758,448.655182 
	C448.419739,425.327484 474.846436,413.767792 505.398956,410.570435 
	C522.183838,408.813934 538.222534,411.417572 553.941650,417.049072 
	C555.018921,417.435028 556.158020,417.648590 557.544067,418.015289 
	C560.337952,412.179413 559.541870,405.874115 560.531982,399.925201 
	C561.555908,393.773407 563.956177,389.011902 570.116028,387.209290 
	C576.303833,385.398438 580.781738,388.640320 584.228760,393.352478 
	C597.507385,411.504883 610.858826,429.608429 623.830811,447.978973 
	C630.327515,457.179413 626.823792,466.513092 615.955505,469.876221 
	C594.487366,476.519318 572.976440,483.027863 551.430908,489.415771 
	C541.669861,492.309784 535.875671,487.825012 535.734924,477.254242 
z"/>
</svg>